<svg width="32" height="32" viewBox="0 0 32 32" fill="none" xmlns="http://www.w3.org/2000/svg">
<g clip-path="url(#clip0)">
<path d="M15.9614 19.4807C17.9019 19.4807 19.4807 17.9019 19.4807 15.9614C19.4807 14.0209 17.9019 12.4421 15.9614 12.4421C14.0209 12.4421 12.4421 14.0209 12.4421 15.9614C12.4421 17.9019 14.0209 19.4807 15.9614 19.4807ZM15.9614 13.8334C17.1348 13.8334 18.0894 14.7879 18.0894 15.9614C18.0894 17.1348 17.1348 18.0894 15.9614 18.0894C14.7879 18.0894 13.8334 17.1348 13.8334 15.9614C13.8334 14.7879 14.7879 13.8334 15.9614 13.8334Z" fill="#56D0C9"/>
<path d="M31.2271 15.2657H28.4706C28.121 8.91003 23.0128 3.80174 16.657 3.45217V0.695652C16.657 0.311536 16.3455 0 15.9614 0C15.5773 0 15.2657 0.311536 15.2657 0.695652V4.12812C15.2657 4.51223 15.5773 4.82377 15.9614 4.82377C22.1027 4.82377 27.099 9.82006 27.099 15.9614C27.099 22.1027 22.1027 27.099 15.9614 27.099C9.82006 27.099 4.82377 22.1027 4.82377 15.9614C4.82377 11.6967 7.31096 7.75072 11.1601 5.90875C11.5067 5.74284 11.6532 5.32754 11.4873 4.98099C11.3215 4.63455 10.9059 4.488 10.5595 4.6538C8.45739 5.65971 6.67861 7.22968 5.41565 9.19386C4.24348 11.0169 3.57252 13.1032 3.45345 15.2657H0.695652C0.311536 15.2657 0 15.5773 0 15.9614C0 16.3455 0.311536 16.657 0.695652 16.657H3.45217C3.80174 23.0128 8.91003 28.121 15.2657 28.4706V31.2271C15.2657 31.6112 15.5773 31.9228 15.9614 31.9228C16.3455 31.9228 16.657 31.6112 16.657 31.2271V28.4706C23.0128 28.121 28.121 23.0128 28.4706 16.657H31.2271C31.6112 16.657 31.9228 16.3455 31.9228 15.9614C31.9228 15.5773 31.6112 15.2657 31.2271 15.2657Z" fill="white"/>
</g>
<defs>
<clipPath id="clip0">
<rect width="32" height="32" fill="white"/>
</clipPath>
</defs>
</svg>
