<svg width="200" height="32" viewBox="0 0 200 32" fill="none" xmlns="http://www.w3.org/2000/svg">
<path d="M55.4883 24H52.6406V11.3203H55.4883V24ZM52.4648 8.02734C52.4648 7.58984 52.6016 7.22656 52.875 6.9375C53.1562 6.64844 53.5547 6.50391 54.0703 6.50391C54.5859 6.50391 54.9844 6.64844 55.2656 6.9375C55.5469 7.22656 55.6875 7.58984 55.6875 8.02734C55.6875 8.45703 55.5469 8.81641 55.2656 9.10547C54.9844 9.38672 54.5859 9.52734 54.0703 9.52734C53.5547 9.52734 53.1562 9.38672 52.875 9.10547C52.6016 8.81641 52.4648 8.45703 52.4648 8.02734ZM65.707 20.5547C65.707 20.0469 65.4961 19.6602 65.0742 19.3945C64.6602 19.1289 63.9688 18.8945 63 18.6914C62.0312 18.4883 61.2227 18.2305 60.5742 17.918C59.1523 17.2305 58.4414 16.2344 58.4414 14.9297C58.4414 13.8359 58.9023 12.9219 59.8242 12.1875C60.7461 11.4531 61.918 11.0859 63.3398 11.0859C64.8555 11.0859 66.0781 11.4609 67.0078 12.2109C67.9453 12.9609 68.4141 13.9336 68.4141 15.1289H65.5664C65.5664 14.582 65.3633 14.1289 64.957 13.7695C64.5508 13.4023 64.0117 13.2188 63.3398 13.2188C62.7148 13.2188 62.2031 13.3633 61.8047 13.6523C61.4141 13.9414 61.2188 14.3281 61.2188 14.8125C61.2188 15.25 61.4023 15.5898 61.7695 15.832C62.1367 16.0742 62.8789 16.3203 63.9961 16.5703C65.1133 16.8125 65.9883 17.1055 66.6211 17.4492C67.2617 17.7852 67.7344 18.1914 68.0391 18.668C68.3516 19.1445 68.5078 19.7227 68.5078 20.4023C68.5078 21.543 68.0352 22.4688 67.0898 23.1797C66.1445 23.8828 64.9062 24.2344 63.375 24.2344C62.3359 24.2344 61.4102 24.0469 60.5977 23.6719C59.7852 23.2969 59.1523 22.7812 58.6992 22.125C58.2461 21.4688 58.0195 20.7617 58.0195 20.0039H60.7852C60.8242 20.6758 61.0781 21.1953 61.5469 21.5625C62.0156 21.9219 62.6367 22.1016 63.4102 22.1016C64.1602 22.1016 64.7305 21.9609 65.1211 21.6797C65.5117 21.3906 65.707 21.0156 65.707 20.5547ZM78.1055 20.5547C78.1055 20.0469 77.8945 19.6602 77.4727 19.3945C77.0586 19.1289 76.3672 18.8945 75.3984 18.6914C74.4297 18.4883 73.6211 18.2305 72.9727 17.918C71.5508 17.2305 70.8398 16.2344 70.8398 14.9297C70.8398 13.8359 71.3008 12.9219 72.2227 12.1875C73.1445 11.4531 74.3164 11.0859 75.7383 11.0859C77.2539 11.0859 78.4766 11.4609 79.4062 12.2109C80.3438 12.9609 80.8125 13.9336 80.8125 15.1289H77.9648C77.9648 14.582 77.7617 14.1289 77.3555 13.7695C76.9492 13.4023 76.4102 13.2188 75.7383 13.2188C75.1133 13.2188 74.6016 13.3633 74.2031 13.6523C73.8125 13.9414 73.6172 14.3281 73.6172 14.8125C73.6172 15.25 73.8008 15.5898 74.168 15.832C74.5352 16.0742 75.2773 16.3203 76.3945 16.5703C77.5117 16.8125 78.3867 17.1055 79.0195 17.4492C79.6602 17.7852 80.1328 18.1914 80.4375 18.668C80.75 19.1445 80.9062 19.7227 80.9062 20.4023C80.9062 21.543 80.4336 22.4688 79.4883 23.1797C78.543 23.8828 77.3047 24.2344 75.7734 24.2344C74.7344 24.2344 73.8086 24.0469 72.9961 23.6719C72.1836 23.2969 71.5508 22.7812 71.0977 22.125C70.6445 21.4688 70.418 20.7617 70.418 20.0039H73.1836C73.2227 20.6758 73.4766 21.1953 73.9453 21.5625C74.4141 21.9219 75.0352 22.1016 75.8086 22.1016C76.5586 22.1016 77.1289 21.9609 77.5195 21.6797C77.9102 21.3906 78.1055 21.0156 78.1055 20.5547ZM91.0781 22.7578C90.2422 23.7422 89.0547 24.2344 87.5156 24.2344C86.1406 24.2344 85.0977 23.832 84.3867 23.0273C83.6836 22.2227 83.332 21.0586 83.332 19.5352V11.3203H86.1797V19.5C86.1797 21.1094 86.8477 21.9141 88.1836 21.9141C89.5664 21.9141 90.5 21.418 90.9844 20.4258V11.3203H93.832V24H91.1484L91.0781 22.7578ZM102.316 24.2344C100.512 24.2344 99.0469 23.668 97.9219 22.5352C96.8047 21.3945 96.2461 19.8789 96.2461 17.9883V17.6367C96.2461 16.3711 96.4883 15.2422 96.9727 14.25C97.4648 13.25 98.1523 12.4727 99.0352 11.918C99.918 11.3633 100.902 11.0859 101.988 11.0859C103.715 11.0859 105.047 11.6367 105.984 12.7383C106.93 13.8398 107.402 15.3984 107.402 17.4141V18.5625H99.1172C99.2031 19.6094 99.5508 20.4375 100.16 21.0469C100.777 21.6562 101.551 21.9609 102.48 21.9609C103.785 21.9609 104.848 21.4336 105.668 20.3789L107.203 21.8438C106.695 22.6016 106.016 23.1914 105.164 23.6133C104.32 24.0273 103.371 24.2344 102.316 24.2344ZM101.977 13.3711C101.195 13.3711 100.562 13.6445 100.078 14.1914C99.6016 14.7383 99.2969 15.5 99.1641 16.4766H104.59V16.2656C104.527 15.3125 104.273 14.5938 103.828 14.1094C103.383 13.6172 102.766 13.3711 101.977 13.3711Z" fill="#56D0C9"/>
<path d="M118.945 26.2383H108.199V24H118.945V26.2383ZM124.02 8.23828V11.3203H126.258V13.4297H124.02V20.5078C124.02 20.9922 124.113 21.3438 124.301 21.5625C124.496 21.7734 124.84 21.8789 125.332 21.8789C125.66 21.8789 125.992 21.8398 126.328 21.7617V23.9648C125.68 24.1445 125.055 24.2344 124.453 24.2344C122.266 24.2344 121.172 23.0273 121.172 20.6133V13.4297H119.086V11.3203H121.172V8.23828H124.02ZM135.082 13.9219C134.707 13.8594 134.32 13.8281 133.922 13.8281C132.617 13.8281 131.738 14.3281 131.285 15.3281V24H128.438V11.3203H131.156L131.227 12.7383C131.914 11.6367 132.867 11.0859 134.086 11.0859C134.492 11.0859 134.828 11.1406 135.094 11.25L135.082 13.9219ZM144.105 24C143.98 23.7578 143.871 23.3633 143.777 22.8164C142.871 23.7617 141.762 24.2344 140.449 24.2344C139.176 24.2344 138.137 23.8711 137.332 23.1445C136.527 22.418 136.125 21.5195 136.125 20.4492C136.125 19.0977 136.625 18.0625 137.625 17.3438C138.633 16.6172 140.07 16.2539 141.938 16.2539H143.684V15.4219C143.684 14.7656 143.5 14.2422 143.133 13.8516C142.766 13.4531 142.207 13.2539 141.457 13.2539C140.809 13.2539 140.277 13.418 139.863 13.7461C139.449 14.0664 139.242 14.4766 139.242 14.9766H136.395C136.395 14.2812 136.625 13.6328 137.086 13.0312C137.547 12.4219 138.172 11.9453 138.961 11.6016C139.758 11.2578 140.645 11.0859 141.621 11.0859C143.105 11.0859 144.289 11.4609 145.172 12.2109C146.055 12.9531 146.508 14 146.531 15.3516V21.0703C146.531 22.2109 146.691 23.1211 147.012 23.8008V24H144.105ZM140.977 21.9492C141.539 21.9492 142.066 21.8125 142.559 21.5391C143.059 21.2656 143.434 20.8984 143.684 20.4375V18.0469H142.148C141.094 18.0469 140.301 18.2305 139.77 18.5977C139.238 18.9648 138.973 19.4844 138.973 20.1562C138.973 20.7031 139.152 21.1406 139.512 21.4688C139.879 21.7891 140.367 21.9492 140.977 21.9492ZM154.723 21.9609C155.434 21.9609 156.023 21.7539 156.492 21.3398C156.961 20.9258 157.211 20.4141 157.242 19.8047H159.926C159.895 20.5938 159.648 21.332 159.188 22.0195C158.727 22.6992 158.102 23.2383 157.312 23.6367C156.523 24.0352 155.672 24.2344 154.758 24.2344C152.984 24.2344 151.578 23.6602 150.539 22.5117C149.5 21.3633 148.98 19.7773 148.98 17.7539V17.4609C148.98 15.5312 149.496 13.9883 150.527 12.832C151.559 11.668 152.965 11.0859 154.746 11.0859C156.254 11.0859 157.48 11.5273 158.426 12.4102C159.379 13.2852 159.879 14.4375 159.926 15.8672H157.242C157.211 15.1406 156.961 14.543 156.492 14.0742C156.031 13.6055 155.441 13.3711 154.723 13.3711C153.801 13.3711 153.09 13.707 152.59 14.3789C152.09 15.043 151.836 16.0547 151.828 17.4141V17.8711C151.828 19.2461 152.074 20.2734 152.566 20.9531C153.066 21.625 153.785 21.9609 154.723 21.9609ZM166.195 18.5625L164.93 19.8633V24H162.082V6H164.93V16.3828L165.82 15.2695L169.324 11.3203H172.746L168.035 16.6055L173.25 24H169.957L166.195 18.5625ZM179.965 24.2344C178.16 24.2344 176.695 23.668 175.57 22.5352C174.453 21.3945 173.895 19.8789 173.895 17.9883V17.6367C173.895 16.3711 174.137 15.2422 174.621 14.25C175.113 13.25 175.801 12.4727 176.684 11.918C177.566 11.3633 178.551 11.0859 179.637 11.0859C181.363 11.0859 182.695 11.6367 183.633 12.7383C184.578 13.8398 185.051 15.3984 185.051 17.4141V18.5625H176.766C176.852 19.6094 177.199 20.4375 177.809 21.0469C178.426 21.6562 179.199 21.9609 180.129 21.9609C181.434 21.9609 182.496 21.4336 183.316 20.3789L184.852 21.8438C184.344 22.6016 183.664 23.1914 182.812 23.6133C181.969 24.0273 181.02 24.2344 179.965 24.2344ZM179.625 13.3711C178.844 13.3711 178.211 13.6445 177.727 14.1914C177.25 14.7383 176.945 15.5 176.812 16.4766H182.238V16.2656C182.176 15.3125 181.922 14.5938 181.477 14.1094C181.031 13.6172 180.414 13.3711 179.625 13.3711ZM193.91 13.9219C193.535 13.8594 193.148 13.8281 192.75 13.8281C191.445 13.8281 190.566 14.3281 190.113 15.3281V24H187.266V11.3203H189.984L190.055 12.7383C190.742 11.6367 191.695 11.0859 192.914 11.0859C193.32 11.0859 193.656 11.1406 193.922 11.25L193.91 13.9219Z" fill="#F2F2F2"/>
<g clip-path="url(#clip0)">
<path d="M15.9614 19.4807C17.9019 19.4807 19.4807 17.9019 19.4807 15.9614C19.4807 14.0209 17.9019 12.4421 15.9614 12.4421C14.0209 12.4421 12.4421 14.0209 12.4421 15.9614C12.4421 17.9019 14.0209 19.4807 15.9614 19.4807V19.4807ZM15.9614 13.8334C17.1348 13.8334 18.0894 14.7879 18.0894 15.9614C18.0894 17.1348 17.1348 18.0894 15.9614 18.0894C14.7879 18.0894 13.8334 17.1348 13.8334 15.9614C13.8334 14.7879 14.7879 13.8334 15.9614 13.8334V13.8334Z" fill="#56D0C9"/>
<path d="M31.2271 15.2657H28.4706C28.121 8.91003 23.0128 3.80174 16.657 3.45217V0.695652C16.657 0.311536 16.3455 0 15.9614 0C15.5773 0 15.2657 0.311536 15.2657 0.695652V4.12812C15.2657 4.51223 15.5773 4.82377 15.9614 4.82377C22.1027 4.82377 27.099 9.82006 27.099 15.9614C27.099 22.1027 22.1027 27.099 15.9614 27.099C9.82006 27.099 4.82377 22.1027 4.82377 15.9614C4.82377 11.6967 7.31096 7.75072 11.1601 5.90875C11.5067 5.74284 11.6532 5.32754 11.4873 4.98099C11.3215 4.63455 10.9059 4.488 10.5595 4.6538C8.45739 5.65971 6.67861 7.22968 5.41565 9.19385C4.24348 11.0169 3.57252 13.1032 3.45345 15.2657H0.695652C0.311536 15.2657 0 15.5773 0 15.9614C0 16.3455 0.311536 16.657 0.695652 16.657H3.45217C3.80174 23.0128 8.91003 28.121 15.2657 28.4706V31.2271C15.2657 31.6112 15.5773 31.9228 15.9614 31.9228C16.3455 31.9228 16.657 31.6112 16.657 31.2271V28.4706C23.0128 28.121 28.121 23.0128 28.4706 16.657H31.2271C31.6112 16.657 31.9228 16.3455 31.9228 15.9614C31.9228 15.5773 31.6112 15.2657 31.2271 15.2657V15.2657Z" fill="white"/>
</g>
<defs>
<clipPath id="clip0">
<rect width="32" height="32" fill="white"/>
</clipPath>
</defs>
</svg>
